<?xml version="1.0" encoding="UTF-8"?>
<!-- Generator: visioncortex VTracer 0.6.3 -->
<svg version="1.1" xmlns="http://www.w3.org/2000/svg" width="1280" height="1280">
<path d="M0 0 C422.4 0 844.8 0 1280 0 C1280 422.4 1280 844.8 1280 1280 C857.6 1280 435.2 1280 0 1280 C0 857.6 0 435.2 0 0 Z " fill="#FAFCFC" transform="translate(0,0)"/>
<path d="M0 0 C0.88 0.21 1.76 0.41 2.66 0.62 C5.5 1.29 8.33 1.97 11.16 2.65 C13.11 3.11 15.05 3.57 17 4.03 C19.9 4.72 22.79 5.41 25.69 6.1 C31.16 7.4 36.63 8.68 42.11 9.92 C43.86 10.32 43.86 10.32 45.64 10.73 C47.73 11.2 49.82 11.67 51.91 12.13 C53.26 12.45 53.26 12.45 54.64 12.77 C55.4 12.94 56.16 13.11 56.95 13.29 C58.79 14.02 58.79 14.02 60.79 17.02 C60.99 19.85 61.07 22.57 61.07 25.39 C61.07 26.26 61.08 27.12 61.09 28.01 C61.1 30.92 61.1 33.83 61.11 36.73 C61.12 38.81 61.13 40.89 61.14 42.97 C61.17 48.63 61.18 54.28 61.19 59.93 C61.21 65.84 61.24 71.75 61.26 77.65 C61.31 88.84 61.35 100.03 61.38 111.22 C61.42 123.95 61.47 136.69 61.52 149.42 C61.62 175.62 61.71 201.82 61.79 228.02 C62.74 227.68 63.69 227.34 64.67 226.99 C65.94 226.54 67.21 226.08 68.48 225.63 C70.34 224.97 70.34 224.97 72.24 224.29 C76.53 222.76 80.84 221.28 85.16 219.84 C85.89 219.59 86.62 219.34 87.37 219.09 C88.09 218.85 88.82 218.6 89.56 218.36 C90.5 218.04 90.5 218.04 91.45 217.72 C94.87 216.7 98.33 215.88 101.79 215.02 C101.79 213.91 101.79 213.91 101.8 212.77 C101.86 194.7 101.93 176.63 102.02 158.57 C102.07 149.83 102.11 141.09 102.14 132.35 C102.16 124.74 102.19 117.12 102.24 109.5 C102.26 105.47 102.28 101.44 102.29 97.41 C102.29 93.61 102.31 89.81 102.34 86.02 C102.35 84.62 102.36 83.23 102.35 81.84 C102.35 79.94 102.37 78.03 102.39 76.13 C102.39 75.06 102.4 74 102.4 72.9 C102.94 68.92 104.47 66.2 107.47 63.53 C108.38 62.92 108.38 62.92 109.31 62.3 C109.99 61.83 110.68 61.36 111.39 60.87 C112.12 60.39 112.85 59.9 113.6 59.4 C120.02 55.03 126.18 50.5 132.06 45.41 C135.83 42.29 138.96 41.03 143.79 41.02 C148.09 41.59 152.31 42.51 156.55 43.45 C157.77 43.71 158.99 43.97 160.25 44.24 C163.48 44.93 166.71 45.63 169.94 46.34 C172.57 46.92 175.2 47.47 177.84 48.03 C180.99 48.7 184.14 49.39 187.3 50.07 C188.47 50.32 189.65 50.57 190.86 50.83 C191.96 51.07 193.06 51.31 194.19 51.57 C195.15 51.77 196.12 51.98 197.11 52.2 C200.16 53.14 202.25 54.07 204.79 56.02 C205.42 58.74 205.42 58.74 205.43 62.08 C205.44 63.35 205.46 64.61 205.47 65.92 C205.47 67.32 205.46 68.73 205.45 70.13 C205.46 71.61 205.47 73.09 205.48 74.57 C205.51 78.58 205.51 82.6 205.5 86.62 C205.49 90.81 205.52 95.01 205.54 99.21 C205.58 107.15 205.59 115.1 205.59 123.05 C205.6 132.09 205.63 141.14 205.67 150.19 C205.74 168.8 205.78 187.41 205.79 206.02 C210.52 207.45 215.15 208.52 220.04 209.31 C221.02 209.47 221.02 209.47 222.02 209.64 C224.09 209.98 226.16 210.31 228.23 210.65 C229.64 210.88 231.05 211.11 232.47 211.34 C235.91 211.91 239.35 212.47 242.79 213.02 C242.79 212.45 242.8 211.87 242.8 211.28 C242.91 197.31 243.01 183.34 243.13 169.37 C243.18 162.61 243.24 155.86 243.29 149.1 C243.33 142.58 243.39 136.07 243.44 129.55 C243.46 127.06 243.48 124.57 243.5 122.08 C243.52 118.6 243.55 115.12 243.58 111.65 C243.59 110.61 243.6 109.57 243.6 108.5 C243.61 107.56 243.62 106.61 243.63 105.64 C243.64 104.4 243.64 104.4 243.65 103.14 C243.79 101.02 243.79 101.02 244.79 98.02 C246.47 96.62 246.47 96.62 248.66 95.17 C249.45 94.63 250.25 94.09 251.07 93.54 C252.36 92.7 252.36 92.7 253.66 91.84 C260.58 87.32 260.58 87.32 267.14 82.32 C268.04 81.58 268.93 80.85 269.85 80.09 C270.59 79.44 271.32 78.79 272.07 78.12 C275.17 76.87 276.11 77.09 279.29 77.79 C280.18 77.98 281.07 78.17 281.99 78.37 C286.53 79.43 291.04 80.56 295.54 81.74 C296.52 81.99 297.5 82.25 298.51 82.52 C300.56 83.05 302.61 83.59 304.66 84.14 C307.81 84.97 310.96 85.78 314.11 86.59 C316.1 87.12 318.1 87.65 320.1 88.18 C321.04 88.42 321.99 88.66 322.96 88.91 C323.83 89.14 324.7 89.37 325.59 89.61 C326.74 89.91 326.74 89.91 327.91 90.22 C329.79 91.02 329.79 91.02 331.79 94.02 C332.05 96.51 332.05 96.51 332.06 99.54 C332.07 100.69 332.08 101.83 332.09 103.02 C332.09 104.91 332.09 104.91 332.09 106.83 C332.1 108.17 332.11 109.51 332.12 110.85 C332.14 113.73 332.15 116.61 332.16 119.5 C332.17 124.05 332.19 128.6 332.22 133.16 C332.26 140.36 332.29 147.56 332.32 154.75 C332.37 167.66 332.43 180.56 332.51 193.46 C332.53 197.99 332.55 202.53 332.57 207.06 C332.58 209.87 332.59 212.68 332.61 215.49 C332.62 217.43 332.62 219.37 332.62 221.3 C332.63 222.44 332.64 223.58 332.64 224.76 C332.65 225.76 332.65 226.76 332.66 227.78 C332.54 229.99 332.54 229.99 333.79 231.02 C336.03 231.2 338.28 231.32 340.53 231.42 C341.92 231.49 343.31 231.56 344.7 231.63 C346.9 231.73 349.1 231.84 351.3 231.92 C353.42 232.01 355.53 232.12 357.65 232.23 C358.92 232.29 360.2 232.34 361.51 232.4 C365.23 233.11 366.46 234.1 368.79 237.02 C368.13 238.34 367.47 239.66 366.79 241.02 C327.74 241.96 291.98 235.4 254.3 225.45 C237.03 220.93 219.51 218.09 201.79 216.02 C201 215.93 200.2 215.83 199.39 215.73 C166.49 212.22 133.57 215.12 101.79 224.02 C100.96 224.25 100.14 224.48 99.29 224.71 C91.34 226.94 83.47 229.39 75.66 232.09 C74.98 232.32 74.29 232.55 73.58 232.79 C70.24 233.97 67.19 235.29 64.12 237.09 C61.25 238.75 58.73 239.88 55.6 240.9 C50.49 242.69 45.78 244.95 40.96 247.41 C14.27 261 -13.46 271.75 -43.21 276.02 C-44.22 276.17 -44.22 276.17 -45.25 276.32 C-63.79 278.95 -84.83 281.84 -103.21 277.02 C-103.21 275.37 -103.21 273.72 -103.21 272.02 C-99.83 269.98 -97.27 269.79 -93.35 269.83 C-92.24 269.83 -91.12 269.84 -89.97 269.85 C-88.81 269.86 -87.65 269.88 -86.46 269.9 C-84.7 269.91 -84.7 269.91 -82.9 269.93 C-80.01 269.95 -77.11 269.98 -74.21 270.02 C-74.21 268.85 -74.21 267.68 -74.22 266.48 C-74.26 238.7 -74.29 210.92 -74.31 183.14 C-74.32 179.72 -74.32 176.3 -74.32 172.89 C-74.32 172.21 -74.32 171.52 -74.32 170.82 C-74.33 159.8 -74.35 148.78 -74.37 137.76 C-74.38 126.45 -74.39 115.14 -74.4 103.83 C-74.4 97.48 -74.41 91.13 -74.42 84.78 C-74.44 78.8 -74.44 72.82 -74.44 66.85 C-74.44 64.65 -74.44 62.46 -74.45 60.26 C-74.46 57.27 -74.46 54.27 -74.45 51.28 C-74.46 50.41 -74.46 49.54 -74.47 48.64 C-74.45 44.33 -74.29 40.91 -72.21 37.02 C-70.71 35.56 -70.71 35.56 -68.93 34.37 C-68.26 33.91 -67.59 33.45 -66.91 32.98 C-66.18 32.5 -65.46 32.02 -64.71 31.52 C-63.16 30.46 -61.61 29.4 -60.07 28.34 C-58.86 27.53 -58.86 27.53 -57.64 26.69 C-53.72 24 -49.87 21.2 -46.02 18.4 C-44.52 17.31 -43.02 16.23 -41.52 15.14 C-39.41 13.61 -37.29 12.08 -35.17 10.54 C-33.29 9.18 -31.41 7.82 -29.52 6.46 C-27.94 5.31 -27.94 5.31 -26.32 4.14 C-25.3 3.44 -24.27 2.74 -23.21 2.02 C-22.65 1.64 -22.09 1.26 -21.51 0.86 C-14.37 -3.67 -7.71 -1.87 0 0 Z " fill="#000302" transform="translate(487.2109375,338.9765625)"/>
<path d="M0 0 C1 3 1 3 0.16 5.23 C-0.49 6.53 -0.49 6.53 -1.16 7.86 C-4.17 14.19 -6.38 20.64 -8.5 27.31 C-8.89 28.54 -9.28 29.76 -9.68 31.02 C-29.99 96 -26.3 167.72 5.38 228.65 C12.15 241.29 19.79 253.49 28.97 264.53 C30.24 266.08 31.49 267.64 32.71 269.22 C37.78 275.78 43.38 281.69 49.25 287.51 C50.81 289.06 52.35 290.61 53.89 292.17 C69.51 307.8 87.63 321.81 107.65 331.35 C110.21 332.61 112.68 333.92 115.16 335.31 C126.6 341.66 138.17 346.22 150.62 350.2 C152.3 350.76 153.96 351.39 155.6 352.05 C158.61 353.24 161.57 353.82 164.75 354.44 C165.71 354.62 165.71 354.62 166.7 354.82 C174.45 356.31 182.22 357.66 190 359 C190.98 359.18 191.95 359.36 192.96 359.55 C196.82 360.12 200.66 360.37 204.56 360.56 C205.39 360.6 206.21 360.65 207.06 360.69 C216.71 361.13 226.34 361.18 236 361 C237.12 360.98 237.12 360.98 238.26 360.96 C266.79 360.33 299.43 355.2 325.05 341.98 C327.48 340.76 329.97 339.71 332.48 338.67 C354.75 329.35 374.89 315.9 393 300 C393.65 299.45 394.3 298.89 394.97 298.32 C402.2 292.14 409.06 285.51 416 279 C416.66 279.66 417.32 280.32 418 281 C418.33 281 418.66 281 419 281 C419.33 281.66 419.66 282.32 420 283 C419.34 283.99 418.68 284.98 418 286 C417.34 286 416.68 286 416 286 C415.74 286.73 415.49 287.46 415.23 288.21 C413.93 291.16 412.43 293.21 410.38 295.69 C409.74 296.45 409.11 297.22 408.46 298.01 C407.65 299 406.84 299.98 406 301 C405.43 301.74 404.85 302.47 404.26 303.23 C399.48 309.35 394.39 314.97 388.88 320.44 C388.04 321.27 387.21 322.09 386.35 322.95 C379.61 329.56 372.68 335.53 365 341 C364.31 341.5 363.61 342 362.89 342.52 C333.37 363.71 302.21 377.57 266.69 385.38 C265.08 385.73 265.08 385.73 263.44 386.1 C246.02 389.72 228.37 390.44 210.62 390.44 C209.63 390.44 208.63 390.44 207.6 390.44 C183.16 390.4 160.17 387 137 379 C136.24 378.75 135.49 378.49 134.71 378.23 C119.28 373.04 104.45 367.05 90.54 358.51 C88.06 357.04 85.55 355.7 83 354.38 C63.7 343.93 46.71 330.21 31 315 C30.5 314.51 30 314.03 29.48 313.53 C11.85 296.4 -2.3 276.56 -14 255 C-14.86 253.44 -14.86 253.44 -15.73 251.86 C-24.99 234.31 -31.02 215.14 -36 196 C-36.37 194.6 -36.37 194.6 -36.75 193.16 C-44.26 164.16 -46.17 131.63 -41 102 C-40.84 101.04 -40.68 100.07 -40.51 99.08 C-34.69 64.83 -24.01 28.61 -2 1 C-1.34 0.67 -0.68 0.34 0 0 Z " fill="#000302" transform="translate(267,332)"/>
<path d="M0 0 C0.84 0.18 1.68 0.36 2.54 0.55 C12.19 2.67 21.8 4.96 31.4 7.31 C34.46 8.05 37.53 8.79 40.6 9.52 C42.56 10 44.52 10.48 46.48 10.95 C47.39 11.17 48.31 11.39 49.25 11.61 C50.09 11.82 50.93 12.03 51.79 12.24 C52.9 12.51 52.9 12.51 54.03 12.78 C55.85 13.41 55.85 13.41 57.85 15.41 C58.05 18.15 58.13 20.79 58.12 23.52 C58.13 24.37 58.13 25.22 58.14 26.09 C58.15 28.95 58.15 31.81 58.15 34.67 C58.16 36.71 58.17 38.76 58.18 40.8 C58.2 46.36 58.21 51.92 58.22 57.49 C58.22 60.96 58.22 64.43 58.23 67.9 C58.26 80.01 58.27 92.11 58.27 104.21 C58.28 115.51 58.31 126.8 58.35 138.1 C58.38 147.79 58.4 157.47 58.4 167.16 C58.4 172.95 58.41 178.74 58.44 184.53 C58.46 189.98 58.47 195.42 58.45 200.87 C58.45 202.87 58.45 204.87 58.47 206.87 C58.49 209.6 58.48 212.32 58.46 215.05 C58.48 215.85 58.49 216.64 58.5 217.46 C58.44 221.48 58.21 223.05 55.31 225.94 C54.5 226.42 53.68 226.91 52.85 227.41 C50.85 226.41 50.85 226.41 49.85 224.41 C49.75 221.77 49.72 219.15 49.73 216.5 C49.73 215.68 49.73 214.85 49.72 214 C49.72 211.21 49.73 208.43 49.73 205.64 C49.73 203.65 49.73 201.66 49.73 199.67 C49.73 194.26 49.74 188.84 49.75 183.42 C49.75 177.77 49.75 172.11 49.75 166.45 C49.76 155.74 49.77 145.02 49.78 134.3 C49.79 122.1 49.79 109.91 49.8 97.71 C49.81 72.61 49.83 47.51 49.85 22.41 C49.19 22.41 48.53 22.41 47.85 22.41 C47.85 21.75 47.85 21.09 47.85 20.41 C46.33 20.27 46.33 20.27 44.78 20.13 C37.38 19.21 30.14 17.19 22.9 15.43 C20.94 14.95 18.97 14.48 17.01 14.01 C15.85 13.73 14.69 13.44 13.5 13.15 C9.33 12.31 5.08 11.88 0.85 11.41 C0.52 90.28 0.19 169.15 -0.15 250.41 C-14.57 255.66 -29.59 260.76 -45.15 260.41 C-45.15 259.42 -45.15 258.43 -45.15 257.41 C-43.1 255.84 -43.1 255.84 -40.28 254.16 C-35.72 251.38 -31.33 248.48 -26.98 245.37 C-24.76 243.83 -22.52 242.37 -20.23 240.93 C-19.54 240.49 -18.86 240.05 -18.16 239.6 C-16.8 238.74 -15.44 237.89 -14.07 237.05 C-11.13 235.17 -9.37 234.01 -8.16 230.67 C-8.15 229.93 -8.15 229.18 -8.15 228.41 C-9.23 227.14 -9.23 227.14 -11.77 227.04 C-16.37 227.55 -18.73 229.58 -22.28 232.41 C-23.61 233.44 -24.95 234.46 -26.29 235.47 C-26.94 235.98 -27.6 236.48 -28.27 237 C-32.74 240.36 -37.48 243.35 -42.15 246.41 C-43.49 247.31 -44.83 248.2 -46.16 249.09 C-46.84 249.55 -47.53 250.01 -48.23 250.48 C-49.57 251.38 -50.91 252.28 -52.25 253.18 C-56.93 256.3 -56.93 256.3 -59.15 257.41 C-62.81 250.1 -61.48 237.27 -60.15 229.41 C-57.3 224.89 -53.98 223.47 -49.15 221.41 C-47.23 220.18 -45.34 218.91 -43.46 217.6 C-41.97 216.62 -41.97 216.62 -40.45 215.61 C-35.97 212.63 -31.53 209.57 -27.11 206.49 C-23.94 204.3 -20.77 202.15 -17.5 200.11 C-15.87 199.08 -15.87 199.08 -14.21 198.04 C-13.26 197.45 -12.3 196.87 -11.31 196.27 C-8.96 194.56 -8.96 194.56 -8.21 191.81 C-8.19 191.02 -8.17 190.23 -8.15 189.41 C-9.14 188.42 -9.14 188.42 -10.15 187.41 C-13.28 187.79 -15.45 189.08 -18.02 190.82 C-18.76 191.31 -19.49 191.8 -20.24 192.31 C-21.02 192.84 -21.79 193.37 -22.59 193.91 C-23.39 194.46 -24.2 195 -25.02 195.56 C-31.77 200.12 -38.47 204.75 -45.15 209.41 C-47.59 211.1 -50.03 212.79 -52.46 214.48 C-53.57 215.24 -54.67 216 -55.77 216.76 C-56.55 217.31 -57.34 217.85 -58.15 218.41 C-61.79 214.78 -60.65 209.08 -60.71 204.16 C-60.76 203.03 -60.81 201.9 -60.87 200.73 C-60.97 192.57 -60.97 192.57 -58.74 189.41 C-56.96 187.85 -55.18 186.62 -53.15 185.41 C-52.26 184.78 -51.36 184.15 -50.44 183.5 C-49.56 182.94 -48.68 182.37 -47.78 181.79 C-42 178.01 -36.36 174.08 -30.75 170.06 C-27.06 167.42 -23.34 164.87 -19.51 162.45 C-18.4 161.73 -18.4 161.73 -17.26 161 C-15.85 160.09 -14.42 159.2 -12.98 158.33 C-10.78 156.98 -10.78 156.98 -8.15 154.41 C-7.57 150.69 -7.57 150.69 -8.15 147.41 C-13.65 148.86 -17.52 151.54 -22.03 154.85 C-23.54 155.94 -25.04 157.02 -26.55 158.11 C-27.32 158.66 -28.08 159.21 -28.87 159.78 C-32.41 162.31 -36 164.77 -39.59 167.23 C-44.88 170.84 -50.14 174.51 -55.33 178.27 C-57.15 179.41 -57.15 179.41 -59.15 179.41 C-62.82 172.08 -61.59 159.27 -60.15 151.41 C-57.71 146.53 -52.92 144.63 -48.15 142.41 C-46.15 141.11 -44.17 139.78 -42.21 138.41 C-41.22 137.76 -40.23 137.11 -39.21 136.44 C-34.96 133.62 -30.79 130.71 -26.62 127.77 C-24.13 126.05 -21.59 124.44 -19 122.87 C-18.3 122.44 -17.61 122.01 -16.9 121.56 C-15.55 120.73 -14.2 119.92 -12.82 119.13 C-10.71 117.88 -10.71 117.88 -8.15 115.41 C-7.59 111.71 -7.59 111.71 -8.15 108.41 C-13.6 109.67 -17.45 111.7 -21.9 115.1 C-23.13 116.01 -24.36 116.92 -25.59 117.82 C-26.2 118.27 -26.8 118.71 -27.42 119.17 C-29.83 120.9 -32.32 122.47 -34.84 124.04 C-39.58 127 -44.06 130.23 -48.56 133.55 C-51.99 136.02 -55.53 138.23 -59.15 140.41 C-62.86 133 -61.92 120.28 -60.15 112.41 C-57.19 107.4 -52.23 104.91 -47.14 102.41 C-44.25 100.96 -41.67 99.13 -39.03 97.29 C-37.58 96.34 -37.58 96.34 -36.11 95.38 C-31.83 92.54 -27.62 89.6 -23.42 86.64 C-21.18 85.12 -18.98 83.69 -16.66 82.31 C-15.57 81.64 -14.47 80.98 -13.34 80.29 C-11.85 79.42 -11.85 79.42 -10.32 78.53 C-7.75 76.48 -7.75 76.48 -7.83 72.67 C-7.94 71.6 -8.04 70.52 -8.15 69.41 C-13.06 70.29 -16.17 71.99 -20.15 75 C-26.1 79.41 -32.22 83.52 -38.4 87.6 C-40.47 88.97 -42.54 90.34 -44.61 91.71 C-45.57 92.34 -46.52 92.97 -47.51 93.63 C-49.8 95.18 -52 96.79 -54.2 98.46 C-55.17 99.11 -56.15 99.75 -57.15 100.41 C-58.14 100.08 -59.13 99.75 -60.15 99.41 C-62.51 77.53 -62.51 77.53 -58.92 71.26 C-55.62 67.77 -51.54 65.62 -47.26 63.5 C-43.88 61.76 -40.84 59.57 -37.71 57.41 C-36.48 56.59 -35.24 55.78 -34 54.96 C-29.85 52.23 -25.75 49.42 -21.65 46.6 C-21.01 46.16 -20.36 45.71 -19.69 45.26 C-15.48 42.35 -11.31 39.4 -7.15 36.41 C-7.65 33.44 -7.65 33.44 -8.15 30.41 C-21.76 34.54 -34.11 45.39 -45.63 53.6 C-46.72 54.37 -46.72 54.37 -47.83 55.16 C-49.23 56.14 -50.62 57.14 -52.01 58.15 C-53.67 59.32 -55.41 60.38 -57.15 61.41 C-58.14 61.08 -59.13 60.75 -60.15 60.41 C-62.82 38.66 -62.82 38.66 -58.76 32.2 C-54.94 28.45 -50.3 26.08 -45.56 23.69 C-41.64 21.61 -38.16 18.97 -34.59 16.35 C-33.19 15.36 -31.8 14.37 -30.39 13.39 C-29.7 12.9 -29.01 12.42 -28.3 11.92 C-24.61 9.34 -20.92 6.78 -17.21 4.23 C-16.53 3.76 -15.85 3.29 -15.15 2.8 C-9.16 -1.32 -7 -1.56 0 0 Z " fill="#FBFDFD" transform="translate(482.15234375,346.5859375)"/>
<path d="M0 0 C2 1 2 1 2.91 3.59 C3.37 5.31 3.37 5.31 3.84 7.07 C4.01 7.69 4.17 8.32 4.35 8.96 C20.48 69.91 15.05 132.27 -13 189 C-13.46 189.96 -13.92 190.91 -14.39 191.89 C-21.6 205.82 -30.24 218.75 -40 231 C-40.79 232.01 -41.58 233.03 -42.39 234.07 C-56.87 251.96 -73.85 268.28 -93 281 C-94.15 281.78 -95.3 282.55 -96.45 283.33 C-104.14 288.53 -111.91 293.44 -120 298 C-120.79 298.46 -121.58 298.92 -122.39 299.4 C-126.89 301.99 -131.4 304.07 -136.25 305.91 C-138.18 306.67 -140.09 307.5 -141.97 308.37 C-151.82 312.89 -161.91 315.63 -172.38 318.32 C-174.77 318.94 -177.15 319.58 -179.54 320.23 C-180.21 320.42 -180.89 320.6 -181.59 320.79 C-182.22 320.96 -182.85 321.14 -183.5 321.31 C-186.58 322.15 -189.59 322.93 -192.74 323.45 C-194.98 323.83 -197.2 324.26 -199.42 324.75 C-210.05 327.01 -220.16 327.36 -231 327.19 C-232.66 327.17 -234.32 327.16 -235.98 327.15 C-239.99 327.11 -243.99 327.06 -248 327 C-250.28 322.56 -251.9 318.39 -253.19 313.56 C-253.53 312.31 -253.88 311.05 -254.23 309.75 C-255 306.02 -255.29 302.8 -255 299 C-252.19 296.19 -249.49 296.65 -245.73 296.58 C-244.2 296.53 -242.67 296.47 -241.14 296.42 C-240.33 296.39 -239.53 296.37 -238.69 296.34 C-220.89 295.71 -204.33 293.25 -187 289 C-185.06 288.55 -183.13 288.11 -181.19 287.67 C-172.05 285.56 -163.51 283.01 -155 279 C-153.94 278.53 -152.88 278.07 -151.79 277.59 C-143.57 273.9 -135.62 269.76 -127.69 265.5 C-126.69 264.97 -125.68 264.43 -124.65 263.88 C-118.11 260.33 -112 256.4 -106 252 C-105.33 251.51 -104.66 251.02 -103.97 250.51 C-101.96 249.03 -99.98 247.52 -98 246 C-97.01 245.25 -96.01 244.51 -94.99 243.74 C-73.87 227.72 -56.84 208.87 -42 187 C-41.23 185.88 -40.46 184.76 -39.68 183.64 C-2.28 128.77 4.66 64.56 0 0 Z " fill="#000302" transform="translate(1018,380)"/>
<path d="M0 0 C10.73 10.75 16.92 23.68 17.25 38.88 C17.13 51.57 12.49 64.66 3.75 74.06 C-7.51 84.4 -19.91 88.68 -34.99 88.45 C-48.95 87.81 -60.8 81.56 -70.72 71.92 C-80.36 61.2 -83.03 48.86 -83.07 34.75 C-82.36 21.64 -74.84 9.2 -65.54 0.23 C-46.47 -14.58 -18.69 -16.15 0 0 Z " fill="#000302" transform="translate(392.0625,746.6875)"/>
<path d="M0 0 C0.66 0.66 1.32 1.32 2 2 C2.33 2 2.66 2 3 2 C3.33 2.66 3.66 3.32 4 4 C3.34 4.99 2.68 5.98 2 7 C1.34 7 0.68 7 0 7 C-0.26 7.73 -0.51 8.46 -0.77 9.21 C-2.07 12.16 -3.57 14.21 -5.62 16.69 C-6.26 17.45 -6.89 18.22 -7.54 19.01 C-8.35 20 -9.16 20.98 -10 22 C-10.57 22.74 -11.15 23.47 -11.74 24.23 C-16.52 30.35 -21.61 35.97 -27.12 41.44 C-27.96 42.27 -28.79 43.09 -29.65 43.95 C-36.39 50.56 -43.32 56.53 -51 62 C-51.69 62.5 -52.39 63 -53.11 63.52 C-82.63 84.71 -113.79 98.57 -149.31 106.38 C-150.38 106.61 -151.45 106.85 -152.56 107.1 C-169.98 110.72 -187.63 111.44 -205.38 111.44 C-206.37 111.44 -207.37 111.44 -208.39 111.44 C-225.68 111.43 -242.16 110.1 -259 106 C-260.27 105.7 -261.54 105.39 -262.84 105.08 C-264.11 104.75 -265.38 104.42 -266.69 104.08 C-267.85 103.78 -269.01 103.48 -270.2 103.17 C-273 102 -273 102 -274.39 99.87 C-274.59 99.25 -274.79 98.64 -275 98 C-274.13 97.38 -273.27 96.76 -272.38 96.12 C-266.53 91.2 -263.1 85.25 -262.33 77.67 C-262.21 76.11 -262.1 74.56 -262 73 C-261.23 73.17 -260.45 73.34 -259.65 73.52 C-256.06 74.31 -252.47 75.09 -248.88 75.88 C-247.66 76.14 -246.44 76.41 -245.18 76.69 C-233.87 79.15 -222.52 81.12 -210.94 81.62 C-210.15 81.66 -209.36 81.7 -208.55 81.74 C-199.03 82.14 -189.52 82.18 -180 82 C-179.25 81.99 -178.51 81.97 -177.74 81.96 C-149.21 81.33 -116.57 76.2 -90.95 62.98 C-88.52 61.76 -86.03 60.71 -83.52 59.67 C-61.25 50.35 -41.11 36.9 -23 21 C-22.35 20.45 -21.7 19.89 -21.03 19.32 C-13.8 13.14 -6.94 6.51 0 0 Z " fill="#877B57" transform="translate(683,611)"/>
<path d="M0 0 C1.45 0.17 1.45 0.17 2.93 0.35 C7.41 1.01 11.84 1.82 16.28 2.74 C17.21 2.93 18.15 3.13 19.11 3.32 C21.06 3.73 23.01 4.13 24.96 4.54 C27.95 5.16 30.95 5.77 33.95 6.37 C35.85 6.76 37.75 7.16 39.65 7.56 C41 7.82 41 7.82 42.37 8.1 C43.61 8.36 43.61 8.36 44.87 8.63 C45.6 8.78 46.32 8.93 47.07 9.09 C48.87 9.78 48.87 9.78 50.87 12.78 C51.12 15.39 51.12 15.39 51.11 18.57 C51.11 19.78 51.12 20.99 51.12 22.23 C51.11 23.57 51.1 24.91 51.1 26.25 C51.1 27.66 51.1 29.07 51.1 30.48 C51.1 34.31 51.09 38.13 51.07 41.96 C51.06 45.96 51.06 49.96 51.06 53.96 C51.05 61.54 51.03 69.11 51.01 76.69 C50.99 85.31 50.98 93.94 50.97 102.56 C50.95 120.3 50.91 138.04 50.87 155.78 C48.49 155.91 48.49 155.91 45.87 155.78 C43.27 153.18 43.61 152.1 43.6 148.48 C43.59 147.35 43.58 146.22 43.57 145.06 C43.57 143.82 43.57 142.58 43.57 141.3 C43.55 139.35 43.55 139.35 43.54 137.36 C43.52 134.52 43.51 131.68 43.5 128.85 C43.49 124.36 43.47 119.88 43.44 115.4 C43.4 108.31 43.36 101.22 43.34 94.13 C43.29 81.43 43.22 68.73 43.15 56.03 C43.13 51.58 43.11 47.12 43.09 42.66 C43.08 40.55 43.07 38.45 43.06 36.34 C43.05 33.78 43.04 31.21 43.04 28.64 C43.03 27.51 43.02 26.38 43.01 25.22 C43.01 24.23 43.01 23.25 43 22.24 C42.97 19.65 42.97 19.65 41.87 16.78 C37.72 15.96 33.58 15.15 29.43 14.35 C28.27 14.12 27.1 13.89 25.9 13.65 C24.19 13.31 24.19 13.31 22.44 12.97 C21.39 12.77 20.35 12.57 19.28 12.36 C15.17 11.66 11.01 11.24 6.87 10.78 C6.54 58.63 6.21 106.48 5.87 155.78 C2.86 157.29 -0.38 157.31 -3.69 157.66 C-10.75 158.43 -17.71 159.51 -24.68 160.82 C-27.55 161.35 -30.2 161.78 -33.13 161.78 C-33.46 159.8 -33.79 157.82 -34.13 155.78 C-6.79 136.34 -6.79 136.34 -2.13 134.78 C-2.05 131.74 -2.15 129.71 -3.13 126.78 C-9.62 129.22 -14.81 132.58 -20.33 136.74 C-24.42 139.73 -28.74 142.27 -33.13 144.78 C-34.94 141.16 -34.53 137.02 -34.63 133.03 C-34.68 132.14 -34.74 131.24 -34.79 130.32 C-34.93 123.95 -34.93 123.95 -32.99 121.12 C-31.14 119.46 -29.21 118.14 -27.13 116.78 C-25.69 115.77 -25.69 115.77 -24.21 114.73 C-20.9 112.42 -17.55 110.16 -14.19 107.91 C-13.02 107.12 -11.85 106.32 -10.68 105.53 C-7.83 103.61 -4.98 101.7 -2.13 99.78 C-2.46 97.47 -2.79 95.16 -3.13 92.78 C-8.48 94.76 -12.74 97.47 -17.35 100.8 C-22.19 104.26 -27.17 107.5 -32.13 110.78 C-35.91 107 -34.98 100.91 -35.05 95.81 C-34.89 91.14 -34.67 88.52 -31.87 84.67 C-28.74 82.37 -25.59 80.57 -22.13 78.78 C-20.03 77.41 -17.95 76.01 -15.88 74.6 C-14.9 73.95 -13.92 73.31 -12.91 72.65 C-9.21 70.16 -5.65 67.52 -2.13 64.78 C-2.48 62.31 -2.48 62.31 -3.13 59.78 C-3.79 59.45 -4.45 59.12 -5.13 58.78 C-12.49 61.85 -18.92 67.1 -25.26 71.85 C-25.98 72.37 -26.7 72.89 -27.44 73.43 C-28.39 74.15 -28.39 74.15 -29.37 74.87 C-29.95 75.17 -30.53 75.47 -31.13 75.78 C-32.12 75.45 -33.11 75.12 -34.13 74.78 C-34.28 71.37 -34.36 67.95 -34.44 64.53 C-34.49 63.56 -34.53 62.6 -34.57 61.6 C-34.69 54.44 -34.69 54.44 -32.19 51.51 C-31.18 50.94 -30.17 50.37 -29.13 49.78 C-27.67 48.78 -26.22 47.78 -24.77 46.76 C-23.12 45.64 -21.47 44.52 -19.82 43.41 C-13.8 39.34 -7.89 35.2 -2.13 30.78 C-2.46 28.8 -2.79 26.82 -3.13 24.78 C-13.86 28.84 -23 35.99 -32.13 42.78 C-35.81 39.1 -35.36 33.8 -35.54 28.81 C-35.37 24.72 -34.97 21.86 -32.42 18.58 C-27.88 14.42 -22.72 11.26 -17.42 8.17 C-14.61 6.47 -12.15 4.44 -9.63 2.35 C-6.18 -0.01 -4.14 -0.5 0 0 Z " fill="#FBFDFD" transform="translate(633.130615234375,389.21728515625)"/>
<path d="M0 0 C1.21 0.01 1.21 0.01 2.45 0.01 C3.7 0.01 3.7 0.01 4.98 0.01 C6.76 0.01 8.54 0.01 10.32 0.02 C13 0.03 15.69 0.02 18.38 0 C44.22 -0.02 44.22 -0.02 52.11 6.28 C59.39 14.66 63.6 22.78 63.38 34.07 C62.38 42.19 58.1 48.88 52.11 54.28 C49.82 55.85 47.61 57.05 45.11 58.28 C46.5 62.11 48.28 65.26 50.56 68.63 C51.24 69.65 51.93 70.66 52.63 71.71 C53.35 72.76 54.06 73.82 54.8 74.9 C60.01 82.63 65.14 90.39 70.11 98.28 C62.52 98.28 54.93 98.28 47.11 98.28 C47.11 97.62 47.11 96.96 47.11 96.28 C46.51 96.03 45.9 95.78 45.28 95.52 C42.77 94.09 41.9 92.87 40.41 90.42 C39.69 89.25 39.69 89.25 38.95 88.05 C38.44 87.22 37.94 86.39 37.42 85.53 C36.89 84.68 36.37 83.83 35.82 82.96 C33.34 78.98 30.92 74.98 28.61 70.91 C28.22 70.26 27.84 69.61 27.45 68.94 C26.42 67.2 25.43 65.43 24.44 63.67 C23.67 62.88 22.9 62.09 22.11 61.28 C19.47 61.28 16.83 61.28 14.11 61.28 C14.11 73.49 14.11 85.7 14.11 98.28 C9.22 98.34 9.22 98.34 4.23 98.4 C3.21 98.42 2.18 98.44 1.13 98.46 C0.32 98.46 -0.49 98.47 -1.32 98.47 C-2.15 98.48 -2.98 98.49 -3.83 98.5 C-5.89 98.28 -5.89 98.28 -7.89 96.28 C-8.09 93.31 -8.16 90.43 -8.15 87.45 C-8.15 86.54 -8.16 85.63 -8.16 84.68 C-8.17 81.65 -8.16 78.62 -8.16 75.59 C-8.16 73.49 -8.16 71.39 -8.16 69.29 C-8.16 64.89 -8.16 60.48 -8.15 56.08 C-8.14 50.42 -8.15 44.76 -8.16 39.11 C-8.17 34.77 -8.16 30.43 -8.16 26.09 C-8.16 24.01 -8.16 21.92 -8.16 19.84 C-8.17 16.93 -8.16 14.01 -8.15 11.1 C-8.15 10.23 -8.16 9.36 -8.16 8.47 C-8.11 1.38 -7.16 0.06 0 0 Z " fill="#000302" transform="translate(1104.890609741211,735.7221069335938)"/>
<path d="M0 0 C0.92 -0.04 1.83 -0.07 2.77 -0.11 C3.65 -0.12 4.53 -0.14 5.44 -0.15 C6.24 -0.17 7.04 -0.19 7.87 -0.21 C10 0.38 10 0.38 11.65 2.55 C13 5.38 14.13 8.18 15.16 11.14 C15.56 12.27 15.95 13.39 16.36 14.55 C16.78 15.75 17.2 16.95 17.62 18.19 C18.52 20.73 19.41 23.27 20.31 25.81 C20.54 26.45 20.76 27.09 21 27.75 C23.12 33.76 25.36 39.73 27.62 45.69 C34.21 63.09 40.18 80.7 46 98.38 C42.58 98.52 39.17 98.61 35.75 98.69 C34.78 98.73 33.81 98.77 32.82 98.81 C25.66 98.94 25.66 98.94 22.47 96.21 C21.01 93.4 19.78 90.68 18.75 87.69 C18.25 86.26 18.25 86.26 17.73 84.8 C17 82.38 17 82.38 17 80.38 C-0.32 80.87 -0.32 80.87 -18 81.38 C-21.96 90.78 -21.96 90.78 -24 98.38 C-31.26 98.38 -38.52 98.38 -46 98.38 C-47.34 94.35 -45.98 91.83 -44.55 88.03 C-44.28 87.29 -44.01 86.54 -43.73 85.77 C-43.13 84.15 -42.54 82.53 -41.94 80.91 C-41 78.37 -40.07 75.82 -39.15 73.26 C-37.51 68.74 -35.87 64.23 -34.22 59.71 C-32.46 54.88 -30.7 50.04 -28.94 45.2 C-28.59 44.26 -28.25 43.32 -27.9 42.35 C-24.79 33.82 -21.71 25.28 -18.65 16.73 C-18.04 15.04 -17.44 13.35 -16.82 11.67 C-16.27 10.12 -15.73 8.57 -15.21 7.01 C-14.56 5.1 -13.79 3.23 -13 1.38 C-8.69 -0.06 -4.52 0.07 0 0 Z " fill="#000302" transform="translate(461,735.625)"/>
<path d="M0 0 C0.72 -0 1.45 -0.01 2.2 -0.01 C5.98 0.03 7.78 0.17 11 2.31 C11.33 5.06 11.46 7.59 11.48 10.35 C11.49 11.14 11.51 11.94 11.52 12.75 C11.57 15.29 11.6 17.83 11.62 20.38 C11.66 22.92 11.7 25.46 11.75 28.01 C11.77 29.59 11.8 31.18 11.81 32.76 C11.53 36.33 11.53 36.33 13 39.31 C15.74 39.47 18.45 39.57 21.19 39.63 C22.01 39.65 22.83 39.67 23.68 39.69 C26.3 39.76 28.93 39.82 31.56 39.88 C33.34 39.92 35.12 39.96 36.9 40.01 C41.26 40.11 45.63 40.21 50 40.31 C49.98 38.6 49.98 38.6 49.97 36.86 C49.93 32.63 49.91 28.41 49.89 24.19 C49.88 22.36 49.87 20.53 49.85 18.7 C49.82 16.07 49.81 13.45 49.8 10.82 C49.79 10 49.78 9.18 49.77 8.33 C49.77 6.32 49.88 4.32 50 2.31 C52 0.31 52 0.31 53.88 0.09 C54.99 0.1 54.99 0.1 56.13 0.12 C57.34 0.13 57.34 0.13 58.57 0.14 C59.84 0.16 59.84 0.16 61.12 0.19 C62.4 0.2 62.4 0.2 63.7 0.21 C65.8 0.24 67.9 0.27 70 0.31 C71.7 3.72 71.13 7.61 71.11 11.35 C71.11 12.29 71.11 13.23 71.11 14.19 C71.11 17.3 71.11 20.4 71.1 23.51 C71.1 25.66 71.09 27.81 71.09 29.96 C71.09 35.62 71.08 41.29 71.07 46.95 C71.06 52.73 71.05 58.51 71.05 64.29 C71.04 75.63 71.02 86.97 71 98.31 C67.88 98.37 64.75 98.41 61.62 98.44 C60.74 98.45 59.85 98.47 58.93 98.49 C58.08 98.49 57.23 98.5 56.35 98.51 C55.57 98.52 54.78 98.53 53.97 98.54 C52 98.31 52 98.31 50 96.31 C49.75 93.59 49.63 90.97 49.59 88.24 C49.57 87.54 49.55 86.83 49.53 86.1 C49.47 83.47 49.42 80.83 49.38 78.19 C49.25 72.29 49.13 66.39 49 60.31 C36.46 59.98 23.92 59.65 11 59.31 C11 72.18 11 85.05 11 98.31 C4.07 98.31 -2.86 98.31 -10 98.31 C-11.66 94.99 -11.16 91.25 -11.16 87.6 C-11.17 86.69 -11.17 85.79 -11.18 84.86 C-11.19 81.87 -11.2 78.87 -11.2 75.88 C-11.21 73.8 -11.21 71.73 -11.22 69.65 C-11.23 65.3 -11.24 60.95 -11.24 56.59 C-11.25 51.01 -11.27 45.42 -11.3 39.83 C-11.32 35.55 -11.32 31.26 -11.32 26.97 C-11.33 24.91 -11.33 22.85 -11.35 20.79 C-11.36 17.91 -11.36 15.04 -11.36 12.16 C-11.37 11.3 -11.37 10.45 -11.38 9.57 C-11.34 3.77 -11.34 3.77 -9.71 1.59 C-6.82 -0.57 -3.46 -0.08 0 0 Z " fill="#000302" transform="translate(108,735.6875)"/>
<path d="M0 0 C0.79 -0.01 1.57 -0.02 2.38 -0.04 C4.42 -0.04 6.46 0.07 8.5 0.19 C11.22 2.91 10.76 4.38 10.77 8.19 C10.78 9.46 10.79 10.72 10.8 12.02 C10.8 13.03 10.8 13.03 10.8 14.07 C10.81 16.19 10.83 18.31 10.85 20.42 C10.9 26.45 10.93 32.48 10.96 38.5 C10.97 42.19 11 45.87 11.04 49.56 C11.05 50.96 11.06 52.36 11.06 53.76 C11.06 55.73 11.08 57.7 11.1 59.66 C11.1 60.78 11.11 61.9 11.11 63.05 C11.7 67.8 13.35 71.1 16.81 74.38 C23.43 78.83 28.53 80.25 36.5 79.19 C39.94 77.73 39.94 77.73 42.5 75.19 C43.37 74.46 44.23 73.72 45.13 72.97 C49.34 67.8 48.16 60.58 48.1 54.27 C48.11 52.81 48.12 51.34 48.13 49.88 C48.15 46.04 48.14 42.2 48.13 38.36 C48.11 32.2 48.12 26.04 48.16 19.88 C48.16 17.73 48.15 15.59 48.14 13.44 C48.14 11.48 48.14 11.48 48.15 9.49 C48.14 8.34 48.14 7.2 48.13 6.01 C48.5 3.19 48.5 3.19 49.79 1.32 C52.74 -0.63 56.09 -0.2 59.5 -0.12 C60.22 -0.13 60.95 -0.13 61.7 -0.13 C65.48 -0.1 67.28 0.04 70.5 2.19 C70.88 4.94 70.88 4.94 70.89 8.5 C70.89 9.15 70.9 9.79 70.9 10.46 C70.92 12.61 70.91 14.76 70.9 16.91 C70.9 18.4 70.9 19.9 70.91 21.4 C70.91 24.55 70.91 27.69 70.89 30.84 C70.87 34.85 70.88 38.86 70.9 42.87 C70.91 45.97 70.91 49.07 70.9 52.17 C70.9 53.64 70.9 55.12 70.91 56.6 C70.95 68.36 70.36 79.09 61.78 87.96 C51.58 97.54 39.31 99.82 25.76 99.5 C14.46 98.9 3.29 93.56 -4.44 85.31 C-11.75 77.01 -10.9 66.99 -10.79 56.66 C-10.79 55.05 -10.78 53.45 -10.78 51.85 C-10.77 47.65 -10.74 43.46 -10.71 39.26 C-10.68 34.97 -10.66 30.68 -10.65 26.39 C-10.61 17.99 -10.56 9.59 -10.5 1.19 C-7.22 -0.45 -3.6 0 0 0 Z " fill="#000302" transform="translate(1008.5,735.8125)"/>
<path d="M0 0 C0.78 -0 1.56 -0.01 2.37 -0.01 C8.17 0.05 8.17 0.05 10.44 2.31 C10.7 5.02 10.7 5.02 10.71 8.52 C10.72 9.82 10.73 11.13 10.74 12.47 C10.74 13.52 10.74 13.52 10.74 14.59 C10.75 16.78 10.76 18.97 10.78 21.16 C10.84 27.39 10.87 33.62 10.89 39.85 C10.91 43.66 10.94 47.46 10.98 51.27 C10.99 52.72 11 54.17 11 55.62 C11 57.65 11.02 59.69 11.04 61.72 C11.04 62.87 11.05 64.03 11.05 65.22 C11.6 69.61 13.2 72.25 16.53 75.11 C22.83 79.07 28.01 80.77 35.44 79.31 C41.03 77.26 43.94 74.37 46.57 68.95 C48.44 63.28 48.04 57.23 48.05 51.31 C48.06 49.87 48.08 48.42 48.1 46.97 C48.14 43.19 48.16 39.41 48.18 35.63 C48.2 31.76 48.24 27.9 48.28 24.03 C48.35 16.46 48.4 8.88 48.44 1.31 C50.73 0.16 52.02 0.2 54.57 0.21 C55.38 0.22 56.18 0.22 57.01 0.22 C58.27 0.24 58.27 0.24 59.56 0.25 C60.41 0.25 61.26 0.26 62.14 0.26 C64.24 0.28 66.34 0.29 68.44 0.31 C69.88 3.19 69.59 5.7 69.61 8.91 C69.62 9.59 69.63 10.27 69.63 10.97 C69.65 13.22 69.67 15.47 69.68 17.72 C69.68 18.49 69.68 19.26 69.69 20.06 C69.71 24.14 69.72 28.22 69.73 32.3 C69.74 36.5 69.78 40.7 69.82 44.91 C69.84 48.15 69.85 51.39 69.86 54.63 C69.86 56.18 69.87 57.73 69.89 59.27 C69.99 67.7 69.88 74.91 65.44 82.31 C64.88 83.36 64.32 84.42 63.75 85.5 C57.69 92.87 47.75 97.56 38.44 99.31 C22.48 100.35 9.06 97.98 -3.56 87.31 C-12.25 77.8 -11.88 66.32 -11.86 54.1 C-11.87 52.64 -11.87 51.18 -11.88 49.72 C-11.88 46.68 -11.88 43.64 -11.88 40.6 C-11.87 36.7 -11.89 32.81 -11.91 28.91 C-11.93 25.9 -11.93 22.9 -11.93 19.89 C-11.93 18.45 -11.93 17.02 -11.94 15.58 C-11.95 13.57 -11.94 11.57 -11.93 9.57 C-11.94 8.43 -11.94 7.29 -11.94 6.12 C-11.56 3.31 -11.56 3.31 -10.29 1.44 C-7.2 -0.58 -3.56 -0.07 0 0 Z " fill="#000302" transform="translate(823.5625,735.6875)"/>
<path d="M0 0 C0.81 -0.03 1.61 -0.06 2.45 -0.09 C8.29 -0.15 8.29 -0.15 11.19 1.74 C14.54 6.49 17.55 11.44 20.58 16.4 C23.11 20.5 25.47 23.99 29 27.31 C29 27.97 29 28.63 29 29.31 C29.66 29.31 30.32 29.31 31 29.31 C31.26 28.59 31.52 27.86 31.79 27.11 C33.03 24.25 34.47 22.06 36.31 19.56 C39.15 15.61 41.6 11.62 43.86 7.32 C47.1 1.61 47.1 1.61 51 0.31 C52.48 0.23 53.97 0.2 55.45 0.21 C56.3 0.22 57.14 0.22 58.02 0.22 C58.9 0.23 59.78 0.24 60.69 0.25 C61.58 0.25 62.47 0.26 63.39 0.26 C65.6 0.28 67.8 0.29 70 0.31 C70 0.97 70 1.63 70 2.31 C70.66 2.31 71.32 2.31 72 2.31 C70.24 6.18 67.87 9.62 65.5 13.12 C64.6 14.47 63.7 15.81 62.79 17.16 C62.33 17.84 61.87 18.53 61.39 19.24 C60.04 21.25 58.7 23.26 57.36 25.28 C56.94 25.92 56.51 26.56 56.08 27.22 C55.24 28.48 54.4 29.75 53.57 31.02 C50.59 35.51 47.42 39.83 44.08 44.07 C42.51 47.33 42.92 48.85 44 52.31 C45.62 55.26 47.51 57.99 49.44 60.75 C50.54 62.36 51.63 63.96 52.73 65.57 C53.28 66.36 53.83 67.16 54.4 67.98 C56.72 71.36 58.99 74.77 61.25 78.19 C63.62 81.76 66 85.32 68.4 88.88 C69.13 89.97 69.87 91.06 70.62 92.19 C71.6 93.64 71.6 93.64 72.6 95.12 C74 97.31 74 97.31 74 98.31 C70.27 98.46 66.54 98.55 62.81 98.62 C61.76 98.67 60.7 98.71 59.62 98.75 C58.59 98.77 57.57 98.78 56.52 98.8 C55.58 98.83 54.64 98.85 53.68 98.88 C48.95 97.88 46.75 94.4 44.1 90.57 C43.52 89.61 42.94 88.64 42.34 87.64 C41.69 86.59 41.04 85.53 40.38 84.44 C39.72 83.35 39.05 82.25 38.38 81.12 C37.06 78.94 35.73 76.76 34.4 74.58 C33.82 73.62 33.24 72.66 32.64 71.66 C31.05 69.08 31.05 69.08 28 67.31 C27.74 68.02 27.48 68.73 27.22 69.46 C25.91 72.52 24.34 75.17 22.56 77.98 C21.56 79.57 21.56 79.57 20.54 81.19 C19.85 82.28 19.15 83.37 18.44 84.5 C17.06 86.68 15.68 88.86 14.31 91.04 C13.7 92.01 13.09 92.97 12.46 93.96 C11.01 96.22 11.01 96.22 10 98.31 C2.08 98.31 -5.84 98.31 -14 98.31 C-12.96 94.17 -11.26 91.31 -8.94 87.81 C-8.33 86.88 -8.33 86.88 -7.71 85.94 C-6.48 84.06 -5.24 82.18 -4 80.31 C-3 78.8 -3 78.8 -1.98 77.25 C0.01 74.27 2 71.29 4 68.31 C5.79 65.63 7.58 62.94 9.38 60.25 C10.22 58.99 11.06 57.73 11.9 56.46 C12.59 55.42 13.29 54.38 14 53.31 C14.66 52.32 15.32 51.33 16 50.31 C15.69 46.21 14.11 43.56 11.82 40.21 C11.17 39.23 10.51 38.26 9.83 37.25 C8.77 35.7 8.77 35.7 7.69 34.12 C6.97 33.07 6.26 32.01 5.52 30.91 C3.35 27.71 1.18 24.51 -1 21.31 C-3.34 17.86 -5.67 14.4 -8 10.94 C-8.51 10.19 -9.02 9.44 -9.54 8.67 C-13 3.54 -13 3.54 -13 1.31 C-8.65 0.1 -4.49 0.05 0 0 Z " fill="#000302" transform="translate(916,735.6875)"/>
<path d="M0 0 C1.09 -0.01 2.19 -0.01 3.32 -0.02 C5.1 -0.01 5.1 -0.01 6.91 -0.01 C8.13 -0.01 9.34 -0.01 10.59 -0.01 C13.16 -0.01 15.73 -0.01 18.3 -0 C22.24 0.01 26.18 -0 30.13 -0.01 C32.62 -0.01 35.11 -0.01 37.6 -0.01 C38.79 -0.01 39.97 -0.01 41.19 -0.02 C42.84 -0.01 42.84 -0.01 44.51 0 C45.96 0 45.96 0 47.44 0 C49.76 0.26 49.76 0.26 51.76 2.26 C51.76 7.87 51.76 13.48 51.76 19.26 C39.55 19.59 27.34 19.92 14.76 20.26 C14.76 26.2 14.76 32.14 14.76 38.26 C16.61 40.11 19.68 39.48 22.16 39.54 C24.11 39.6 24.11 39.6 26.1 39.65 C27.49 39.69 28.87 39.72 30.26 39.76 C32.95 39.83 35.65 39.9 38.35 39.98 C39.55 40.01 40.76 40.04 42 40.07 C44.76 40.26 44.76 40.26 45.76 41.26 C45.84 42.6 45.86 43.95 45.85 45.29 C45.85 46.02 45.85 46.75 45.85 47.5 C45.84 48.43 45.83 49.36 45.82 50.32 C45.8 53.27 45.78 56.22 45.76 59.26 C35.53 59.26 25.3 59.26 14.76 59.26 C14.43 65.53 14.1 71.8 13.76 78.26 C16.33 78.31 18.91 78.36 21.56 78.41 C24.05 78.46 26.54 78.52 29.03 78.58 C30.76 78.61 32.49 78.65 34.22 78.68 C36.71 78.73 39.2 78.78 41.69 78.84 C42.46 78.86 43.24 78.87 44.04 78.88 C49.53 79.03 49.53 79.03 51.76 81.26 C51.9 84.17 51.94 86.98 51.88 89.88 C51.87 90.69 51.86 91.49 51.85 92.31 C51.83 94.3 51.79 96.28 51.76 98.26 C44.36 98.31 36.96 98.34 29.56 98.36 C26.13 98.37 22.69 98.39 19.26 98.41 C15.31 98.44 11.37 98.45 7.42 98.45 C6.18 98.46 4.95 98.47 3.67 98.49 C2.53 98.49 1.39 98.49 0.22 98.49 C-0.79 98.49 -1.8 98.49 -2.84 98.5 C-5.24 98.26 -5.24 98.26 -7.24 96.26 C-7.44 93.29 -7.52 90.41 -7.5 87.43 C-7.51 86.52 -7.51 85.61 -7.51 84.67 C-7.52 81.63 -7.52 78.6 -7.51 75.57 C-7.51 73.47 -7.51 71.37 -7.52 69.27 C-7.52 64.87 -7.51 60.46 -7.5 56.06 C-7.49 50.4 -7.5 44.74 -7.51 39.09 C-7.52 34.75 -7.52 30.41 -7.51 26.08 C-7.51 23.99 -7.51 21.9 -7.52 19.82 C-7.52 16.91 -7.51 13.99 -7.5 11.08 C-7.51 10.21 -7.51 9.35 -7.52 8.45 C-7.47 1.79 -6.73 0.01 0 0 Z " fill="#000302" transform="translate(206.244140625,735.7412109375)"/>
<path d="M0 0 C8.86 0.86 17.66 3.57 26.25 5.83 C28.59 6.44 30.93 7.04 33.28 7.63 C34.77 8.03 36.26 8.42 37.75 8.81 C38.8 9.07 38.8 9.07 39.87 9.34 C44.77 10.66 44.77 10.66 47 14 C47.25 16.4 47.25 16.4 47.24 19.3 C47.24 20.39 47.25 21.49 47.25 22.62 C47.24 24.43 47.24 24.43 47.23 26.27 C47.23 27.54 47.23 28.81 47.23 30.12 C47.23 33.6 47.22 37.08 47.2 40.55 C47.19 44.19 47.19 47.83 47.19 51.46 C47.18 58.35 47.16 65.23 47.14 72.12 C47.12 79.95 47.11 87.79 47.1 95.63 C47.08 111.75 47.04 127.88 47 144 C45.68 144 44.36 144 43 144 C40.75 137.68 40.69 131.76 40.68 125.1 C40.67 123.92 40.66 122.74 40.65 121.52 C40.63 118.3 40.61 115.08 40.6 111.86 C40.58 108.48 40.55 105.11 40.53 101.74 C40.48 95.36 40.44 88.98 40.41 82.6 C40.37 75.34 40.32 68.07 40.27 60.81 C40.17 45.87 40.08 30.94 40 16 C38.87 15.73 37.73 15.47 36.56 15.2 C35.04 14.84 33.52 14.48 32 14.12 C31.26 13.95 30.51 13.78 29.75 13.6 C26.03 12.72 22.32 11.83 18.62 10.88 C15.55 10.13 13.13 9.8 10 10 C9 12.99 8.86 14.99 8.84 18.11 C8.83 19.69 8.83 19.69 8.81 21.31 C8.81 22.46 8.8 23.62 8.79 24.82 C8.78 26.03 8.77 27.25 8.76 28.51 C8.74 31.86 8.72 35.2 8.7 38.55 C8.67 42.04 8.65 45.54 8.62 49.03 C8.57 55.65 8.53 62.27 8.48 68.89 C8.43 76.42 8.38 83.96 8.32 91.5 C8.21 107 8.1 122.5 8 138 C5.14 137.37 2.29 136.73 -0.57 136.1 C-1.37 135.92 -2.17 135.74 -2.99 135.56 C-22.25 131.28 -22.25 131.28 -25 128 C-21.21 123.99 -17.17 120.77 -12.69 117.56 C-11.36 116.6 -10.03 115.64 -8.7 114.67 C-8.06 114.21 -7.42 113.76 -6.77 113.28 C-3.48 110.9 -0.24 108.45 3 106 C2.67 104.02 2.34 102.04 2 100 C-3.84 101.47 -7.94 104.6 -12.69 108.12 C-14.19 109.24 -15.69 110.35 -17.2 111.45 C-18.19 112.18 -18.19 112.18 -19.19 112.93 C-21 114 -21 114 -24 114 C-25.72 112.28 -25.29 110.1 -25.38 107.75 C-25.42 106.8 -25.47 105.84 -25.52 104.86 C-24.31 98.22 -16.73 94.5 -11.5 90.88 C-10.75 90.35 -10.01 89.83 -9.24 89.29 C-6.22 87.18 -3.24 85.14 -0.05 83.3 C2.61 81.61 3.12 79.96 4 77 C3.34 77 2.68 77 2 77 C2 76.34 2 75.68 2 75 C-2.44 75.55 -5.17 77.21 -8.81 79.75 C-13.48 82.96 -18.18 86.03 -23 89 C-25.67 86.33 -25.33 84.85 -25.38 81.12 C-25.4 80.08 -25.43 79.03 -25.46 77.95 C-24.77 73.51 -22.08 71.79 -18.56 69.2 C-17.23 68.31 -17.23 68.31 -15.87 67.4 C-14.41 66.42 -14.41 66.42 -12.93 65.41 C-11.92 64.74 -10.91 64.07 -9.88 63.38 C-7.87 62.03 -5.87 60.68 -3.87 59.34 C-2.54 58.45 -2.54 58.45 -1.18 57.54 C1.07 56.04 1.07 56.04 3 54 C2.91 51.91 2.91 51.91 2 50 C-0.83 48.7 -0.83 48.7 -2.91 49.75 C-8.07 52.75 -12.94 55.99 -17.74 59.55 C-19.9 60.94 -21.46 61.66 -24 62 C-25.86 60.14 -25.3 57.25 -25.38 54.75 C-25.42 53.61 -25.47 52.47 -25.52 51.3 C-24.84 46.98 -23.34 45.74 -20 43 C-18.16 41.68 -16.28 40.41 -14.38 39.19 C-8.43 35.32 -2.7 31.22 3 27 C2.67 25.02 2.34 23.04 2 21 C-5.29 22.3 -10.22 26.58 -16 31 C-17.98 32.48 -19.85 33.76 -22 35 C-22.99 34.67 -23.98 34.34 -25 34 C-25.14 31.6 -25.23 29.21 -25.31 26.81 C-25.35 26.14 -25.4 25.47 -25.44 24.77 C-25.53 21.21 -25.23 19.31 -23.09 16.43 C-18.94 13.17 -14.64 10.18 -10.25 7.25 C-8.53 6.09 -6.8 4.93 -5.08 3.77 C-4.32 3.26 -3.56 2.75 -2.78 2.23 C-1.06 1.12 -1.06 1.12 0 0 Z " fill="#FBFDFD" transform="translate(764,425)"/>
<path d="M0 0 C2.29 2.22 4.08 4.43 6 7 C4.47 10.58 2.33 13.03 -0.38 15.81 C-1.15 16.62 -1.92 17.43 -2.71 18.27 C-5 20 -5 20 -7.05 19.92 C-9.12 18.94 -10.89 17.82 -12.75 16.5 C-16.98 13.79 -19.96 13 -25 13 C-27.95 13.88 -27.95 13.88 -30 16 C-31.68 19.66 -32.29 21.14 -31 25 C-28.58 26.42 -26.22 27.67 -23.69 28.88 C-22.96 29.23 -22.24 29.58 -21.5 29.95 C-17.25 32.01 -12.96 33.85 -8.56 35.56 C-0.01 39.06 5.89 43.6 10.12 51.89 C13.06 58.99 13.31 68.08 10.88 75.38 C6.72 84.4 -0.01 88.27 -9 92 C-17.7 94.96 -29.25 93.8 -37.54 90.27 C-45.14 86.35 -53.2 81.2 -58 74 C-58.02 72.08 -58.02 72.08 -57 70 C-54.93 68.37 -53 67.03 -50.75 65.69 C-50.18 65.32 -49.6 64.94 -49.01 64.56 C-46.28 62.89 -44.46 61.98 -41.22 62.12 C-38.09 63.36 -36.38 65.62 -34 68 C-28.37 71.94 -22.79 72.99 -16 72 C-12.82 70.76 -12.82 70.76 -11 68 C-10.65 64.25 -10.53 61.83 -12.42 58.52 C-16.03 55 -19.94 53.75 -24.62 52.06 C-31.88 49.31 -38.63 46.51 -45 42 C-45.6 41.62 -46.2 41.23 -46.82 40.84 C-51.52 37.51 -52.98 33.45 -54 28 C-55.13 18.55 -52.86 10.68 -47.94 2.62 C-34.93 -9 -14.24 -10.06 0 0 Z " fill="#000302" transform="translate(685,742)"/>
<path d="M0 0 C2.56 2.56 2.56 2.56 4.56 7.56 C-1.38 13.01 -1.38 13.01 -7.44 18.56 C-12.44 16.56 -12.44 16.56 -14.38 15.06 C-18.22 12.27 -21.4 11.49 -26.12 11.81 C-29.55 12.38 -29.55 12.38 -32.44 14.56 C-33.53 17.94 -33.53 17.94 -33.44 21.56 C-29.63 27.72 -20.22 30.29 -13.73 32.8 C-2.61 37.09 3.07 40.68 8.56 51.56 C10.83 58.37 11.09 69.41 8.12 76.12 C3.33 83.67 -4.08 89.02 -12.7 91.11 C-25.73 93.27 -37.41 91.31 -48.31 83.75 C-52.65 80.37 -56.3 77.09 -59.44 72.56 C-59.47 70.62 -59.47 70.62 -58.44 68.56 C-56.34 66.96 -54.38 65.64 -52.12 64.31 C-51.54 63.95 -50.96 63.59 -50.36 63.21 C-47.03 61.2 -45.43 60.56 -41.44 60.56 C-39.73 62.18 -38.06 63.86 -36.44 65.56 C-30.09 70.13 -25.18 71.44 -17.44 70.56 C-14.23 69.17 -14.23 69.17 -12.44 66.56 C-11.73 62.94 -12.23 61.03 -13.71 57.67 C-17.09 52.81 -23.23 51.56 -28.56 49.69 C-38.81 46.09 -48.15 41.84 -54.44 32.56 C-57.44 24.69 -56.87 16.51 -53.69 8.81 C-49.24 -0.15 -43.31 -4.06 -34.06 -7.26 C-22.5 -10.25 -9.43 -7.19 0 0 Z " fill="#000302" transform="translate(568.4375,743.4375)"/>
<path d="M0 0 C5.75 5.3 9.21 12.54 12.68 19.45 C13.8 21.62 14.98 23.59 16.38 25.59 C18 28 18 28 18 30 C19.32 30.33 20.64 30.66 22 31 C25.48 26.27 28.74 21.48 31.74 16.43 C32.21 15.63 32.69 14.83 33.18 14.01 C34.13 12.4 35.07 10.78 36 9.16 C40.42 1.7 40.42 1.7 45 0 C47.78 -0.29 50.29 -0.42 53.06 -0.38 C53.77 -0.39 54.48 -0.4 55.21 -0.41 C59.42 -0.39 61.95 0.01 65 3 C64.54 3.69 64.08 4.38 63.6 5.1 C62.21 7.19 60.81 9.28 59.42 11.38 C57.78 13.84 56.13 16.29 54.49 18.75 C47.99 28.42 47.99 28.42 41.78 38.27 C40 41 40 41 38.18 43.09 C30.52 52.56 32 64.11 32.06 75.69 C32.05 77.85 32.03 80.02 32.01 82.19 C31.97 87.46 31.99 92.73 32 98 C25.4 98 18.8 98 12 98 C9.75 91.25 9.75 91.25 9.85 87.97 C9.87 87.24 9.88 86.51 9.9 85.76 C9.93 84.99 9.95 84.21 9.98 83.42 C10.01 81.75 10.04 80.08 10.07 78.4 C10.12 75.8 10.19 73.19 10.27 70.58 C10.91 56.93 10.91 56.93 5 45 C4.28 43.91 3.56 42.82 2.82 41.7 C2.12 40.71 1.41 39.71 0.69 38.69 C-0.1 37.56 -0.89 36.44 -1.68 35.31 C-2.07 34.75 -2.46 34.2 -2.87 33.62 C-6 29.14 -8.99 24.57 -12 20 C-12.47 19.29 -12.94 18.58 -13.42 17.85 C-14.95 15.53 -16.48 13.2 -18 10.88 C-18.74 9.75 -18.74 9.75 -19.5 8.61 C-20.18 7.56 -20.18 7.56 -20.88 6.49 C-21.28 5.87 -21.69 5.24 -22.12 4.6 C-23 3 -23 3 -23 1 C-15.76 -1.41 -7.26 -2.93 0 0 Z " fill="#000302" transform="translate(1196,736)"/>
<path d="M0 0 C1.94 -0.01 1.94 -0.01 3.91 -0.02 C5.33 -0.02 6.75 -0.02 8.16 -0.02 C9.61 -0.03 11.06 -0.03 12.5 -0.03 C15.54 -0.04 18.58 -0.04 21.61 -0.04 C25.5 -0.04 29.39 -0.05 33.29 -0.07 C36.28 -0.08 39.27 -0.08 42.26 -0.08 C43.69 -0.08 45.13 -0.09 46.56 -0.1 C48.57 -0.11 50.57 -0.1 52.58 -0.1 C53.72 -0.1 54.86 -0.1 56.04 -0.1 C58.85 0.15 58.85 0.15 61.85 2.15 C62.19 4.02 62.19 4.02 62.15 6.28 C62.14 7.37 62.14 7.37 62.12 8.48 C62.1 9.4 62.07 10.32 62.04 11.27 C61.95 15.66 61.95 15.66 61.85 20.15 C53.93 20.15 46.01 20.15 37.85 20.15 C37.85 45.89 37.85 71.63 37.85 98.15 C31.25 98.15 24.65 98.15 17.85 98.15 C15.07 95.36 15.55 92.77 15.53 89.03 C15.52 88.3 15.51 87.57 15.5 86.82 C15.47 84.39 15.46 81.97 15.44 79.54 C15.42 77.87 15.4 76.19 15.38 74.51 C15.33 70.09 15.29 65.66 15.25 61.24 C15.21 56.73 15.16 52.22 15.11 47.71 C15.01 38.85 14.93 30 14.85 21.15 C7.59 20.82 0.33 20.49 -7.15 20.15 C-8.8 16.84 -8.25 13.15 -8.21 9.52 C-8.2 8.72 -8.2 7.92 -8.2 7.09 C-8.18 5.11 -8.17 3.13 -8.15 1.15 C-5.37 -0.24 -3.11 0.01 0 0 Z " fill="#000302" transform="translate(26.146240234375,735.854736328125)"/>
<path d="M0 0 C40.8 -1.5 82.1 9.52 121.17 20.21 C122.74 20.64 124.31 21.07 125.89 21.5 C126.65 21.7 127.41 21.91 128.2 22.13 C148.79 27.75 168.74 32.18 190.05 34.08 C191.55 34.23 191.55 34.23 193.09 34.37 C199.75 34.98 206.35 35.24 213.05 35.21 C214 35.21 214.96 35.2 215.94 35.2 C221.81 35.17 227.59 34.89 233.43 34.32 C236.34 34.06 239.24 33.91 242.17 33.83 C243.06 33.81 243.95 33.78 244.87 33.75 C245.59 33.86 246.31 33.97 247.05 34.08 C249.05 37.08 249.05 37.08 249.05 41.08 C242.6 43.4 236.5 43.39 229.7 43.38 C227.9 43.39 227.9 43.39 226.06 43.4 C223.52 43.4 220.97 43.4 218.43 43.4 C214.62 43.4 210.8 43.42 206.99 43.44 C186.98 43.5 167.63 41.88 148.17 37.08 C146.95 36.79 145.72 36.5 144.46 36.2 C134.45 33.78 124.53 31.07 114.6 28.36 C94.55 22.89 74.45 18.03 54.05 14.08 C52.82 13.84 51.59 13.61 50.32 13.36 C19.08 7.5 -13.04 8.83 -43.95 16.08 C-44.72 16.26 -45.49 16.44 -46.27 16.62 C-56.38 18.99 -66.19 21.64 -75.89 25.36 C-79.42 26.19 -80.86 25.91 -83.95 24.08 C-84.77 21.96 -84.77 21.96 -84.95 20.08 C-64.29 3.52 -25.55 1.08 0 0 Z " fill="#000302" transform="translate(645.953125,575.91748046875)"/>
<path d="M0 0 C0.34 1.86 0.34 1.86 0.38 4.19 C0.87 11.52 3.54 18.14 6 25 C6.5 26.49 6.5 26.49 7 28 C-1.74 30.44 -10.49 32.88 -19.25 35.25 C-20.41 35.56 -21.57 35.88 -22.77 36.2 C-26 37 -26 37 -28.75 37.45 C-30.98 37.83 -33.21 38.26 -35.42 38.75 C-46.05 41.01 -56.16 41.36 -67 41.19 C-68.66 41.17 -70.32 41.16 -71.98 41.15 C-75.99 41.11 -79.99 41.06 -84 41 C-86.28 36.56 -87.9 32.39 -89.19 27.56 C-89.53 26.31 -89.88 25.05 -90.23 23.75 C-91 20.02 -91.29 16.8 -91 13 C-88.19 10.19 -85.49 10.65 -81.73 10.58 C-80.2 10.53 -78.67 10.47 -77.14 10.42 C-76.33 10.39 -75.53 10.37 -74.69 10.34 C-54.75 9.64 -36.21 6.42 -16.87 1.43 C-15.94 1.19 -15 0.94 -14.04 0.7 C-12.32 0.25 -10.6 -0.22 -8.9 -0.7 C-3.32 -2.22 -3.32 -2.22 0 0 Z " fill="#877B57" transform="translate(854,666)"/>
<path d="M0 0 C1.19 -0 1.19 -0 2.41 -0.01 C3.25 -0 4.08 0.01 4.94 0.02 C5.77 0.01 6.6 0 7.46 -0.01 C8.26 -0.01 9.05 -0 9.88 0 C10.61 0 11.34 0 12.09 0.01 C13.94 0.27 13.94 0.27 15.94 2.27 C16.15 4.73 16.25 7.09 16.26 9.56 C16.27 10.31 16.28 11.06 16.29 11.84 C16.32 14.33 16.33 16.82 16.35 19.3 C16.37 21.03 16.39 22.75 16.41 24.48 C16.46 29.02 16.5 33.56 16.54 38.1 C16.58 42.73 16.63 47.36 16.68 51.99 C16.78 61.08 16.86 70.17 16.94 79.27 C17.84 79.26 18.74 79.26 19.68 79.25 C23.02 79.23 26.36 79.22 29.7 79.21 C31.15 79.21 32.6 79.2 34.04 79.19 C36.12 79.18 38.2 79.17 40.28 79.17 C41.53 79.16 42.78 79.16 44.07 79.15 C46.94 79.27 46.94 79.27 47.94 80.27 C48.02 81.61 48.04 82.96 48.04 84.3 C48.03 85.11 48.03 85.92 48.03 86.75 C48.01 88.03 48.01 88.03 48 89.33 C48 90.18 47.99 91.04 47.99 91.92 C47.97 94.03 47.96 96.15 47.94 98.27 C40.57 98.32 33.2 98.35 25.83 98.38 C23.32 98.39 20.81 98.4 18.31 98.42 C14.71 98.44 11.11 98.45 7.51 98.46 C6.38 98.47 5.25 98.48 4.09 98.49 C3.05 98.49 2.01 98.49 0.94 98.49 C0.02 98.5 -0.9 98.5 -1.85 98.51 C-4.06 98.27 -4.06 98.27 -6.06 96.27 C-6.26 93.29 -6.34 90.41 -6.32 87.44 C-6.32 86.53 -6.33 85.61 -6.33 84.67 C-6.34 81.64 -6.33 78.61 -6.33 75.58 C-6.33 73.48 -6.33 71.38 -6.33 69.28 C-6.34 64.87 -6.33 60.47 -6.32 56.06 C-6.31 50.41 -6.32 44.75 -6.33 39.09 C-6.34 34.76 -6.34 30.42 -6.33 26.08 C-6.33 24 -6.33 21.91 -6.34 19.82 C-6.34 16.91 -6.33 14 -6.32 11.09 C-6.33 10.22 -6.33 9.35 -6.33 8.46 C-6.29 2.78 -6.1 0.02 0 0 Z " fill="#000302" transform="translate(755.0625,735.734375)"/>
<path d="M0 0 C6.4 4.64 10.53 11.58 13 19 C13.76 28.73 13.44 36.4 7.27 44.18 C0.84 51.17 -5.33 54.14 -14.81 54.62 C-23.99 54.34 -31.36 50.76 -38.06 44.56 C-43.43 38.59 -44.99 31.86 -45 24 C-44.18 15.01 -39.61 7.7 -33.15 1.54 C-22.86 -5.85 -10.93 -5.52 0 0 Z " fill="#FBFDFD" transform="translate(375,760)"/>
<path d="M0 0 C0.81 0 1.61 0.01 2.44 0.01 C3.7 0.02 3.7 0.02 4.99 0.04 C5.84 0.04 6.69 0.04 7.57 0.05 C9.67 0.06 11.77 0.08 13.87 0.1 C15.57 3.5 15 7.39 14.98 11.14 C14.98 12.07 14.98 13.01 14.98 13.98 C14.98 17.08 14.97 20.19 14.96 23.29 C14.96 25.44 14.96 27.59 14.96 29.74 C14.96 35.41 14.95 41.07 14.94 46.74 C14.93 52.51 14.92 58.29 14.92 64.07 C14.91 75.41 14.89 86.76 14.87 98.1 C11.55 98.13 8.24 98.14 4.93 98.16 C3.98 98.17 3.04 98.18 2.06 98.19 C0.72 98.19 0.72 98.19 -0.66 98.2 C-1.49 98.2 -2.33 98.21 -3.18 98.21 C-5.13 98.1 -5.13 98.1 -6.13 97.1 C-6.23 94.11 -6.26 91.15 -6.25 88.17 C-6.25 87.24 -6.25 86.3 -6.25 85.33 C-6.25 82.22 -6.24 79.11 -6.23 76 C-6.23 73.85 -6.23 71.7 -6.23 69.55 C-6.22 63.87 -6.21 58.2 -6.2 52.53 C-6.19 46.74 -6.19 40.96 -6.18 35.17 C-6.17 23.82 -6.15 12.46 -6.13 1.1 C-3.84 -0.05 -2.55 -0.02 0 0 Z " fill="#000302" transform="translate(599.1328125,735.90234375)"/>
<path d="M0 0 C3.96 3.52 6.8 7.24 7.67 12.57 C7.82 17.47 7.54 21.15 4.25 25 C0.71 28.75 -2.41 29.76 -7.41 30.09 C-12.99 29.87 -16.6 28.05 -20.69 24.31 C-23.53 19.75 -24.37 16.18 -23.34 10.89 C-21.7 5.66 -19.23 3.08 -14.75 0 C-9.84 -1.64 -4.89 -1.78 0 0 Z " fill="#000302" transform="translate(663.75,881)"/>
<path d="M0 0 C4.35 3.99 7.49 9.19 7.81 15.19 C7.03 20.56 5.24 23.86 1.56 27.94 C-3.46 30.38 -8.7 30.7 -14 28.94 C-17.77 27.24 -20.33 25.51 -22.75 22.06 C-24.09 17.15 -24.05 13.15 -22.69 8.25 C-17.59 -0.14 -9.36 -3.19 0 0 Z " fill="#000302" transform="translate(507.75,880.9375)"/>
<path d="M0 0 C3.4 -0.15 6.79 -0.23 10.19 -0.31 C11.15 -0.35 12.11 -0.4 13.1 -0.44 C20.26 -0.56 20.26 -0.56 24.05 2.33 C27.04 6.43 28.51 8.79 28.39 14 C27.61 18.01 24.56 19.93 21.37 22.12 C17.74 23.47 14.21 23.29 10.38 23.25 C9.6 23.26 8.82 23.27 8.02 23.27 C2.25 23.25 2.25 23.25 0 21 C-0.23 18.85 -0.23 18.85 -0.2 16.21 C-0.19 15.27 -0.18 14.33 -0.18 13.36 C-0.16 12.37 -0.14 11.39 -0.12 10.38 C-0.12 9.38 -0.11 8.39 -0.1 7.37 C-0.07 4.91 -0.04 2.46 0 0 Z " fill="#FBFDFD" transform="translate(1119,756)"/>
<path d="M0 0 C1.64 1.45 1.64 1.45 3.04 3.46 C3.56 4.18 4.08 4.9 4.61 5.64 C5.13 6.4 5.65 7.16 6.19 7.94 C7.24 9.43 8.3 10.92 9.36 12.4 C10.05 13.4 10.05 13.4 10.75 14.42 C11.93 16.14 11.93 16.14 14 17 C14.33 11.39 14.66 5.78 15 0 C16.65 0 18.3 0 20 0 C22 2 22 2 22.23 4.8 C22.22 5.96 22.21 7.12 22.2 8.32 C22.19 9.58 22.18 10.83 22.18 12.13 C22.16 13.45 22.14 14.77 22.12 16.12 C22.11 17.46 22.11 18.8 22.1 20.14 C22.07 23.43 22.04 26.71 22 30 C18.14 30.3 15.74 30.44 12.36 28.42 C9.58 25.57 7.38 22.57 5.19 19.25 C4.78 18.65 4.37 18.05 3.96 17.43 C2.96 15.96 1.98 14.48 1 13 C-0.59 16.19 -0.1 19.63 -0.06 23.12 C-0.06 23.88 -0.05 24.63 -0.05 25.41 C-0.04 27.27 -0.02 29.14 0 31 C-5.88 30.12 -5.88 30.12 -7 29 C-7.09 26.93 -7.11 24.85 -7.1 22.78 C-7.09 21.52 -7.09 20.26 -7.09 18.96 C-7.08 17.62 -7.07 16.28 -7.06 14.94 C-7.06 13.59 -7.05 12.25 -7.05 10.9 C-7.04 7.6 -7.02 4.3 -7 1 C-4.44 -0.28 -2.84 -0.31 0 0 Z " fill="#000302" transform="translate(407,880)"/>
<path d="M0 0 C7.8 0.09 7.8 0.09 10.5 2.81 C13.18 6.99 13.62 9.41 13.19 14.44 C11.89 15.81 10.56 17.15 9.19 18.44 C9.6 21.47 10.85 23.98 12.25 26.69 C12.61 27.39 12.97 28.1 13.35 28.83 C13.76 29.62 13.76 29.62 14.19 30.44 C11.35 30.5 9.77 30.49 7.19 29.44 C5.05 27.22 3.33 24.9 1.57 22.37 C1.11 21.73 0.66 21.09 0.19 20.44 C-0.14 20.44 -0.47 20.44 -0.81 20.44 C-1.14 24.07 -1.47 27.7 -1.81 31.44 C-7.69 30.56 -7.69 30.56 -8.81 29.44 C-9.07 24.96 -9 20.48 -9 16 C-9.02 14.1 -9.02 14.1 -9.04 12.16 C-9.04 10.95 -9.04 9.75 -9.04 8.5 C-9.05 7.39 -9.05 6.28 -9.06 5.13 C-8.54 -0.54 -4.81 0.09 0 0 Z " fill="#000302" transform="translate(743.8125,879.5625)"/>
<path d="M0 0 C0.66 0 1.32 0 2 0 C3.41 4 4.82 8 6.22 12.01 C6.69 13.37 7.17 14.72 7.65 16.08 C8.35 18.04 9.03 20.01 9.71 21.97 C10.13 23.15 10.54 24.33 10.97 25.54 C12 29 12 29 13 36 C5.74 36 -1.52 36 -9 36 C-10.14 31.45 -9.32 28.89 -7.91 24.61 C-7.69 23.9 -7.46 23.2 -7.23 22.47 C-6.52 20.23 -5.79 17.99 -5.06 15.75 C-4.58 14.23 -4.09 12.7 -3.6 11.18 C-2.41 7.45 -1.21 3.72 0 0 Z " fill="#FBFDFD" transform="translate(459,762)"/>
<path d="M0 0 C1.65 0 3.3 0 5 0 C6.18 2.36 6.15 3.87 6.21 6.5 C6.24 7.39 6.27 8.27 6.3 9.19 C6.35 11.06 6.39 12.94 6.43 14.81 C6.46 15.7 6.49 16.59 6.52 17.5 C6.54 18.31 6.56 19.13 6.58 19.97 C6.83 22.4 6.83 22.4 10 24 C12.54 24.33 12.54 24.33 15 24 C17.48 21.52 17.29 20.64 17.41 17.21 C17.45 16.27 17.49 15.33 17.53 14.36 C17.56 13.37 17.59 12.39 17.62 11.38 C17.66 10.38 17.7 9.39 17.74 8.37 C17.84 5.91 17.92 3.46 18 1 C20.38 0.38 20.38 0.38 23 0 C25.43 2.43 25.26 3.07 25.27 6.39 C25.27 7.7 25.27 7.7 25.27 9.04 C25.27 9.96 25.26 10.87 25.25 11.81 C25.26 12.72 25.27 13.62 25.27 14.55 C25.25 22.99 25.25 22.99 23 27 C19.81 29.89 17.12 30.89 12.81 31.31 C8.31 30.94 4.57 29.86 1 27 C-1.82 22.35 -1.26 17.06 -1.19 11.81 C-1.19 10.9 -1.19 9.98 -1.19 9.04 C-1.14 2.28 -1.14 2.28 0 0 Z " fill="#000302" transform="translate(691,880)"/>
<path d="M0 0 C2.81 -0.03 5.62 -0.05 8.44 -0.06 C9.24 -0.07 10.04 -0.08 10.87 -0.09 C12.91 -0.1 14.96 -0.05 17 0 C18 1 18 1 18 6 C14.37 6 10.74 6 7 6 C7 7.65 7 9.3 7 11 C8.3 11.14 9.6 11.29 10.94 11.44 C14.88 11.88 14.88 11.88 16 13 C16.04 14.67 16.04 16.33 16 18 C13.03 18 10.06 18 7 18 C6.96 19.67 6.96 21.33 7 23 C8.58 24.58 10.38 24.35 12.56 24.56 C13.39 24.65 14.22 24.73 15.07 24.82 C16.02 24.91 16.02 24.91 17 25 C17.33 26.65 17.66 28.3 18 30 C12.06 30 6.12 30 0 30 C-0.76 26.22 -1.13 23.32 -1.13 19.55 C-1.13 18.54 -1.14 17.53 -1.14 16.48 C-1.13 15.44 -1.13 14.39 -1.12 13.31 C-1.13 12.25 -1.13 11.2 -1.14 10.11 C-1.14 9.1 -1.13 8.09 -1.13 7.05 C-1.13 6.13 -1.13 5.21 -1.13 4.26 C-1 2 -1 2 0 0 Z " fill="#000302" transform="translate(899,880)"/>
<path d="M0 0 C2.63 -0.03 5.25 -0.05 7.88 -0.06 C8.62 -0.07 9.37 -0.08 10.14 -0.09 C15.77 -0.11 15.77 -0.11 18 1 C17.67 2.65 17.34 4.3 17 6 C13.7 6.33 10.4 6.66 7 7 C7 8.32 7 9.64 7 11 C8.11 11.12 9.23 11.25 10.38 11.38 C14 12 14 12 16 14 C16 15.32 16 16.64 16 18 C11.05 18.5 11.05 18.5 6 19 C6.66 20.65 7.32 22.3 8 24 C9.28 24.12 10.56 24.25 11.88 24.38 C15.75 24.75 15.75 24.75 18 27 C18 28.32 18 29.64 18 31 C15.02 30.86 12.04 30.71 9.06 30.56 C8.21 30.52 7.36 30.48 6.49 30.44 C5.68 30.4 4.87 30.36 4.04 30.32 C2.91 30.26 2.91 30.26 1.77 30.21 C0 30 0 30 -1 29 C-1.1 27.02 -1.13 25.04 -1.13 23.07 C-1.13 21.86 -1.14 20.65 -1.14 19.41 C-1.13 18.14 -1.13 16.87 -1.12 15.56 C-1.13 14.3 -1.13 13.03 -1.14 11.72 C-1.14 10.52 -1.13 9.31 -1.13 8.07 C-1.13 6.95 -1.13 5.84 -1.13 4.69 C-1 2 -1 2 0 0 Z " fill="#000302" transform="translate(363,880)"/>
<path d="M0 0 C1.13 0.01 1.13 0.01 2.27 0.01 C3.02 0.01 3.77 0 4.55 0 C10.15 0.01 10.15 0.01 11.27 1.14 C11.27 2.79 11.27 4.44 11.27 6.14 C7.64 6.14 4.01 6.14 0.27 6.14 C0.93 8.12 1.59 10.1 2.27 12.14 C3.7 12.07 3.7 12.07 5.15 12.01 C8.27 12.14 8.27 12.14 10.27 14.14 C10.27 15.46 10.27 16.78 10.27 18.14 C5.32 18.63 5.32 18.63 0.27 19.14 C0.27 22.77 0.27 26.4 0.27 30.14 C-1.73 30.18 -3.73 30.18 -5.73 30.14 C-7.56 28.31 -6.86 25.4 -6.86 22.95 C-6.86 21.69 -6.86 20.44 -6.86 19.14 C-6.86 18.49 -6.86 17.83 -6.86 17.15 C-6.85 15.15 -6.86 13.14 -6.86 11.13 C-6.86 9.87 -6.86 8.62 -6.86 7.32 C-6.86 5.58 -6.86 5.58 -6.86 3.8 C-6.62 -1.05 -4.3 0.01 0 0 Z " fill="#000302" transform="translate(869.7265625,879.86328125)"/>
<path d="M0 0 C0.89 0.14 1.77 0.29 2.69 0.44 C4.09 2.39 5.42 4.39 6.69 6.44 C8.79 7.83 8.79 7.83 10.69 8.44 C11.22 7.3 11.76 6.17 12.31 5 C14.02 1.98 14.33 1.55 17.81 0.44 C20.69 0.44 20.69 0.44 22.69 1.44 C21.63 3.74 20.5 5.69 19 7.74 C13.59 15.17 12.59 21.34 12.69 30.44 C10.69 30.48 8.69 30.48 6.69 30.44 C4.93 28.68 5.6 25.95 5.56 23.56 C5.14 16.97 3.15 13.04 -0.72 7.78 C-2.22 5.57 -2.98 4.07 -3.31 1.44 C-2.31 0.44 -2.31 0.44 0 0 Z " fill="#000302" transform="translate(535.3125,879.5625)"/>
<path d="M0 0 C1.77 -0 1.77 -0 3.57 -0.01 C6.44 0.12 6.44 0.12 7.44 1.12 C7.72 5.41 7.67 9.71 7.69 14 C7.71 15.21 7.73 16.42 7.75 17.67 C7.76 18.83 7.76 19.99 7.77 21.18 C7.77 22.25 7.78 23.31 7.79 24.41 C7.44 27.12 7.44 27.12 6.05 28.96 C2.92 31.23 -0.79 31.26 -4.56 31.12 C-8.12 29.69 -8.12 29.69 -10.56 28.12 C-10.56 26.8 -10.56 25.49 -10.56 24.12 C-6.84 23.36 -4.21 23.04 -0.56 24.12 C1.19 22.37 0.57 20.09 0.57 17.75 C0.57 17.05 0.57 16.35 0.56 15.62 C0.57 14.92 0.57 14.22 0.57 13.5 C0.88 10.02 0.88 10.02 -0.56 7.12 C-2.89 6.76 -5.22 6.42 -7.56 6.12 C-7.89 4.48 -8.22 2.83 -8.56 1.12 C-5.7 -0.31 -3.19 -0.01 0 0 Z " fill="#000302" transform="translate(457.5625,879.875)"/>
<path d="M0 0 C1.82 2.38 3 3.96 3 7 C4.65 7.33 6.3 7.66 8 8 C8.8 6.3 8.8 6.3 9.62 4.56 C11.37 1.45 11.62 1.11 15.25 0.06 C16.16 0.04 17.07 0.02 18 0 C18.71 1.69 18.71 1.69 19 4 C17.64 6.44 17.64 6.44 15.69 9 C11.62 14.41 9.73 17.36 9.88 24.25 C9.9 25.87 9.9 25.87 9.93 27.52 C9.95 28.34 9.98 29.16 10 30 C8 30.04 6 30.04 4 30 C3.67 29.67 3.34 29.34 3 29 C3 27.27 3 25.54 3 23.81 C2.51 16.4 -0.89 11.7 -5.07 5.84 C-7 3 -7 3 -7 1 C-4.4 -0.3 -2.88 -0.42 0 0 Z " fill="#000302" transform="translate(605,880)"/>
<path d="M0 0 C2.65 2.99 3.84 5.13 4.56 9.06 C3.8 13.06 2.14 14.5 -1 17 C-2.88 18 -2.88 18 -5 18 C-8.57 16.71 -11.3 15.7 -14 13 C-14.35 9.25 -14.28 6.67 -12.81 3.19 C-9.22 -1.15 -5.26 -1.79 0 0 Z " fill="#FBFDFD" transform="translate(661,887)"/>
<path d="M0 0 C3.54 0.54 3.54 0.54 5 2 C5.14 3.55 5.23 5.1 5.28 6.66 C5.32 7.6 5.36 8.54 5.39 9.5 C5.46 11.5 5.54 13.5 5.61 15.5 C5.64 16.44 5.68 17.38 5.72 18.34 C5.75 19.21 5.78 20.08 5.81 20.97 C5.78 22.99 5.78 22.99 7 24 C9.33 24.37 11.66 24.7 14 25 C14.33 26.65 14.66 28.3 15 30 C12.35 30.03 9.71 30.05 7.06 30.06 C6.31 30.07 5.55 30.08 4.78 30.09 C2.85 30.1 0.92 30.05 -1 30 C-3.7 27.3 -2.19 19.2 -2.19 15.56 C-2.21 13.66 -2.21 13.66 -2.22 11.72 C-2.23 10.52 -2.23 9.31 -2.23 8.07 C-2.23 6.95 -2.24 5.84 -2.24 4.69 C-2 2 -2 2 0 0 Z " fill="#000302" transform="translate(804,880)"/>
<path d="M0 0 C2.57 2.83 3.22 5.34 3.44 9.06 C3 13 3 13 1.5 15.5 C-1.99 17.59 -5.09 17.74 -9 17 C-12 15.5 -12 15.5 -14 13 C-14.52 9.74 -14.77 8.07 -14 5 C-9.88 -0.23 -6.48 -1.89 0 0 Z " fill="#FBFDFD" transform="translate(505,887)"/>
<path d="M0 0 C1 1 1 1 1.11 3.68 C1.11 4.85 1.1 6.02 1.1 7.22 C1.09 8.48 1.09 9.74 1.09 11.04 C1.08 12.38 1.07 13.72 1.06 15.06 C1.06 16.41 1.05 17.75 1.05 19.1 C1.04 22.4 1.02 25.7 1 29 C-1 29.04 -3 29.04 -5 29 C-6 28 -6 28 -6.11 25.32 C-6.11 24.15 -6.1 22.98 -6.1 21.78 C-6.09 20.52 -6.09 19.26 -6.09 17.96 C-6.08 16.62 -6.07 15.28 -6.06 13.94 C-6.06 12.59 -6.05 11.25 -6.05 9.9 C-6.04 6.6 -6.02 3.3 -6 0 C-3.5 -1.25 -2.6 -0.84 0 0 Z " fill="#000302" transform="translate(842,881)"/>
<path d="M0 0 C0.87 0.12 1.73 0.25 2.62 0.38 C4.44 2.88 4.44 2.88 5.62 5.38 C3.62 7.38 3.62 7.38 0.56 7.56 C-2.38 7.38 -2.38 7.38 -3.38 6.38 C-3.5 3.88 -3.5 3.88 -3.38 1.38 C-2.38 0.38 -2.38 0.38 0 0 Z " fill="#FBFDFD" transform="translate(745.375,885.625)"/>
</svg>
